<mxfile host="65bd71144e">
    <diagram id="nDplw0ehHfaVhQMXq616" name="Page-1">
        <mxGraphModel dx="990" dy="614" grid="1" gridSize="10" guides="1" tooltips="1" connect="1" arrows="1" fold="1" page="1" pageScale="1" pageWidth="827" pageHeight="1169" math="0" shadow="0">
            <root>
                <mxCell id="0"/>
                <mxCell id="1" parent="0"/>
                <mxCell id="32" value="HTML" style="swimlane;rounded=1;fontSize=18;" vertex="1" parent="1">
                    <mxGeometry x="40" y="280" width="160" height="280" as="geometry">
                        <mxRectangle x="40" y="290" width="80" height="30" as="alternateBounds"/>
                    </mxGeometry>
                </mxCell>
                <mxCell id="56" value="&lt;font style=&quot;font-size: 18px&quot;&gt;Screen&lt;/font&gt;" style="rounded=1;whiteSpace=wrap;html=1;fontSize=14;" vertex="1" parent="32">
                    <mxGeometry x="10" y="40" width="140" height="50" as="geometry"/>
                </mxCell>
                <mxCell id="58" value="&lt;span style=&quot;font-size: 18px&quot;&gt;Buttons&lt;/span&gt;" style="rounded=1;whiteSpace=wrap;html=1;fontSize=14;" vertex="1" parent="32">
                    <mxGeometry x="10" y="100" width="140" height="170" as="geometry"/>
                </mxCell>
                <mxCell id="44" value="JavaScript" style="swimlane;rounded=1;fontSize=18;" vertex="1" parent="1">
                    <mxGeometry x="320" y="280" width="160" height="280" as="geometry"/>
                </mxCell>
                <mxCell id="84" style="edgeStyle=none;html=1;exitX=0.5;exitY=1;exitDx=0;exitDy=0;entryX=0.5;entryY=0;entryDx=0;entryDy=0;fontSize=14;" edge="1" parent="44" source="11" target="83">
                    <mxGeometry relative="1" as="geometry"/>
                </mxCell>
                <mxCell id="11" value="&lt;font style=&quot;font-size: 18px&quot;&gt;Validation&lt;/font&gt;" style="whiteSpace=wrap;html=1;rounded=1;" vertex="1" parent="44">
                    <mxGeometry x="20" y="140" width="120" height="30" as="geometry"/>
                </mxCell>
                <mxCell id="86" style="edgeStyle=none;html=1;exitX=0.5;exitY=1;exitDx=0;exitDy=0;entryX=0.5;entryY=0;entryDx=0;entryDy=0;fontSize=14;" edge="1" parent="44" source="83" target="85">
                    <mxGeometry relative="1" as="geometry"/>
                </mxCell>
                <mxCell id="83" value="&lt;font style=&quot;font-size: 18px&quot;&gt;Translation&lt;/font&gt;" style="whiteSpace=wrap;html=1;rounded=1;" vertex="1" parent="44">
                    <mxGeometry x="20" y="190" width="120" height="30" as="geometry"/>
                </mxCell>
                <mxCell id="85" value="&lt;font style=&quot;font-size: 18px&quot;&gt;Send&lt;/font&gt;" style="whiteSpace=wrap;html=1;rounded=1;" vertex="1" parent="44">
                    <mxGeometry x="20" y="240" width="120" height="30" as="geometry"/>
                </mxCell>
                <mxCell id="87" value="&lt;font style=&quot;font-size: 18px&quot;&gt;Receive&lt;/font&gt;" style="whiteSpace=wrap;html=1;rounded=1;" vertex="1" parent="44">
                    <mxGeometry x="20" y="40" width="120" height="30" as="geometry"/>
                </mxCell>
                <mxCell id="95" style="edgeStyle=none;html=1;exitX=0.5;exitY=1;exitDx=0;exitDy=0;entryX=0.5;entryY=0;entryDx=0;entryDy=0;fontSize=14;" edge="1" parent="44" source="93" target="11">
                    <mxGeometry relative="1" as="geometry"/>
                </mxCell>
                <mxCell id="93" value="&lt;font style=&quot;font-size: 18px&quot;&gt;String&lt;/font&gt;" style="whiteSpace=wrap;html=1;rounded=1;" vertex="1" parent="44">
                    <mxGeometry x="20" y="90" width="120" height="30" as="geometry"/>
                </mxCell>
                <mxCell id="60" value="Golang" style="swimlane;rounded=1;fontSize=18;" vertex="1" parent="1">
                    <mxGeometry x="600" y="280" width="160" height="280" as="geometry"/>
                </mxCell>
                <mxCell id="89" style="edgeStyle=none;html=1;exitX=0.5;exitY=0;exitDx=0;exitDy=0;entryX=0.5;entryY=1;entryDx=0;entryDy=0;fontSize=14;" edge="1" parent="60" source="61" target="62">
                    <mxGeometry relative="1" as="geometry"/>
                </mxCell>
                <mxCell id="61" value="&lt;span style=&quot;font-size: 18px&quot;&gt;Parse&lt;/span&gt;" style="whiteSpace=wrap;html=1;rounded=1;" vertex="1" parent="60">
                    <mxGeometry x="20" y="190" width="120" height="30" as="geometry"/>
                </mxCell>
                <mxCell id="90" style="edgeStyle=none;html=1;exitX=0.5;exitY=0;exitDx=0;exitDy=0;entryX=0.5;entryY=1;entryDx=0;entryDy=0;fontSize=14;" edge="1" parent="60" source="62" target="64">
                    <mxGeometry relative="1" as="geometry"/>
                </mxCell>
                <mxCell id="62" value="&lt;font style=&quot;font-size: 18px&quot;&gt;Refactor&lt;/font&gt;" style="whiteSpace=wrap;html=1;rounded=1;" vertex="1" parent="60">
                    <mxGeometry x="20" y="140" width="120" height="30" as="geometry"/>
                </mxCell>
                <mxCell id="91" style="edgeStyle=none;html=1;exitX=0.5;exitY=0;exitDx=0;exitDy=0;entryX=0.5;entryY=1;entryDx=0;entryDy=0;fontSize=14;" edge="1" parent="60" source="64" target="76">
                    <mxGeometry relative="1" as="geometry"/>
                </mxCell>
                <mxCell id="64" value="&lt;font style=&quot;font-size: 18px&quot;&gt;Calculate&lt;/font&gt;" style="whiteSpace=wrap;html=1;rounded=1;" vertex="1" parent="60">
                    <mxGeometry x="20" y="90" width="120" height="30" as="geometry"/>
                </mxCell>
                <mxCell id="76" value="&lt;span style=&quot;font-size: 18px&quot;&gt;Send&lt;/span&gt;" style="whiteSpace=wrap;html=1;rounded=1;" vertex="1" parent="60">
                    <mxGeometry x="20" y="40" width="120" height="30" as="geometry"/>
                </mxCell>
                <mxCell id="88" style="edgeStyle=none;html=1;exitX=0.5;exitY=0;exitDx=0;exitDy=0;entryX=0.5;entryY=1;entryDx=0;entryDy=0;fontSize=14;" edge="1" parent="60" source="67" target="61">
                    <mxGeometry relative="1" as="geometry"/>
                </mxCell>
                <mxCell id="67" value="&lt;span style=&quot;font-size: 18px&quot;&gt;Receive&lt;/span&gt;" style="whiteSpace=wrap;html=1;rounded=1;" vertex="1" parent="60">
                    <mxGeometry x="20" y="240" width="120" height="30" as="geometry"/>
                </mxCell>
                <mxCell id="94" value="DOM" style="edgeStyle=none;html=1;exitX=1;exitY=0.5;exitDx=0;exitDy=0;entryX=0;entryY=0.5;entryDx=0;entryDy=0;fontSize=14;" edge="1" parent="1" source="58" target="93">
                    <mxGeometry relative="1" as="geometry"/>
                </mxCell>
                <mxCell id="96" value="Websocket" style="edgeStyle=none;html=1;exitX=1;exitY=0.5;exitDx=0;exitDy=0;entryX=0;entryY=0.5;entryDx=0;entryDy=0;fontSize=14;" edge="1" parent="1" source="85" target="67">
                    <mxGeometry relative="1" as="geometry"/>
                </mxCell>
                <mxCell id="97" value="Websocket" style="edgeStyle=none;html=1;exitX=0;exitY=0.5;exitDx=0;exitDy=0;entryX=1;entryY=0.5;entryDx=0;entryDy=0;fontSize=14;" edge="1" parent="1" source="76" target="87">
                    <mxGeometry relative="1" as="geometry"/>
                </mxCell>
                <mxCell id="98" value="DOM" style="edgeStyle=none;html=1;exitX=0;exitY=0.5;exitDx=0;exitDy=0;entryX=1;entryY=0.5;entryDx=0;entryDy=0;fontSize=14;" edge="1" parent="1" source="87" target="56">
                    <mxGeometry relative="1" as="geometry"/>
                </mxCell>
            </root>
        </mxGraphModel>
    </diagram>
</mxfile>